<svg xmlns="http://www.w3.org/2000/svg" width="59.274" height="59.274" viewBox="0 0 59.274 59.274">
    <g id="Symbols" transform="translate(0 -0.133)">
        <g id="topbar" transform="translate(0 0.133)">
            <g id="logo" transform="translate(0 0)">
                <g id="Shape" transform="translate(0 0)">
                    <path id="Path_1" data-name="Path 1" d="M23.219,45.924a2.865,2.865,0,0,0-.2-.389l-.051-.052c-.077-.156-.128-.286-.2-.441-.077-.13-.154-.234-.23-.363l-.026-.052c-.051-.13-.1-.286-.154-.415-.077-.13-.154-.234-.23-.364-.051-.1-.128-.182-.179-.286a1.592,1.592,0,0,0-.179-.363c-.077-.13-.154-.234-.23-.364-.1-.208-.23-.389-.333-.6a3.379,3.379,0,0,0-.256-.389l-.026-.052-.23-.389a3.653,3.653,0,0,0-.256-.416.911.911,0,0,1-.128-.208c-.077-.13-.154-.234-.23-.364a1.075,1.075,0,0,0-.179-.286c-.128-.208-.282-.389-.41-.6-.1-.156-.2-.338-.307-.519-.128-.208-.282-.416-.435-.623l-.154-.234a3.8,3.8,0,0,1-.256-.337l-.051-.078a3.772,3.772,0,0,1-.23-.338c-.051-.078-.1-.13-.154-.208-.077-.1-.128-.208-.179-.286-.128-.182-.256-.338-.384-.519a1.435,1.435,0,0,0-.154-.208c-.128-.182-.256-.364-.41-.571l-.384-.545c-.1-.156-.23-.286-.333-.441a4.277,4.277,0,0,1-.358-.571c-.051-.078-.1-.13-.154-.208-.128-.156-.256-.337-.384-.493L15,33.124c-.154-.208-.282-.389-.435-.6-.1-.156-.2-.338-.333-.519s-.256-.338-.384-.519c-.051-.078-.1-.182-.154-.26-.077-.13-.154-.26-.23-.364-.128-.182-.23-.389-.358-.571-.1-.156-.23-.338-.333-.493-.077-.13-.179-.286-.256-.415-.077-.1-.128-.208-.2-.312-.077-.156-.154-.286-.23-.441-.026-.052-.077-.078-.1-.13-.1-.208-.2-.415-.333-.623l-.23-.389-.026-.078c-.051-.078-.077-.156-.128-.234-.077-.156-.128-.312-.179-.441-.077-.182-.179-.338-.256-.493l-.026-.052a1.482,1.482,0,0,1-.1-.312,4.91,4.91,0,0,1-.179-.571l-.23-.545-.051.026c-.051-.234-.128-.467-.179-.727-.026-.078-.077-.156-.1-.234a.767.767,0,0,1-.051-.234c-.026-.13,0-.26-.1-.364-.051-.052-.026-.182-.051-.26a.6.6,0,0,0-.1-.415l-.026-.078c-.051-.545-.128-1.064-.179-1.61-.026-.26-.077-.545-.1-.8,0-.078-.026-.156-.026-.234,0-.493.026-.961,0-1.454a9.759,9.759,0,0,1,.077-1.22c.026-.312.026-.6.051-.909a.2.2,0,0,1,.026-.13.706.706,0,0,0,.1-.467,1.037,1.037,0,0,1,.1-.545c.051-.078.026-.208.051-.338s.077-.234.1-.363c.026-.052.026-.1.051-.156.026-.156,0-.312.128-.441l.026-.052c.051-.234.1-.493.179-.727a5.72,5.72,0,0,1,.23-.6l.026-.078c.051-.182.128-.363.179-.545a2.457,2.457,0,0,1,.154-.389l.23-.389.026-.052a1.581,1.581,0,0,1,.282-.545c.077-.13.128-.312.2-.441s.154-.234.23-.363l.026-.052a2.158,2.158,0,0,1,.179-.338c.1-.156.179-.312.282-.467.154-.234.333-.467.512-.7.077-.1.128-.208.2-.312a1.438,1.438,0,0,1,.154-.208A4.686,4.686,0,0,1,13.593,7c.2-.234.435-.441.64-.649.128-.13.23-.312.384-.441l.768-.7a4.941,4.941,0,0,0,.384-.363l.384-.312c.179-.13.333-.286.512-.415.1-.078.2-.13.282-.182s.179-.1.256-.156l.845-.545c.128-.078.23-.182.358-.26.077-.052.154-.078.23-.13.128-.052.256-.13.384-.182l.384-.234c.025-.026.077-.026.128-.052a.558.558,0,0,0,.128-.078c-.026,0,.026-.026.051-.052.051-.026.128-.078.179-.1l.077-.026c.077-.052.179-.078.256-.13.154-.052.333-.13.486-.182l.154-.078.051-.026.538-.156.614-.234a.429.429,0,0,1,.128-.052c.128-.052.256-.078.384-.13.256-.052.512-.1.768-.182a3.137,3.137,0,0,0-.563-.1c-.23-.078-.512-.078-.768-.156a6.812,6.812,0,0,0-.717-.1,4.445,4.445,0,0,0-.845-.078,4.145,4.145,0,0,1-.589-.052,1.256,1.256,0,0,0-.41-.078H18.124a6.466,6.466,0,0,0-1,.078c-.282.052-.563.026-.845.052a3.451,3.451,0,0,0-.486.052l-.307.078a3.031,3.031,0,0,0-.512.078,3.915,3.915,0,0,1-.384.1c-.077.026-.179.026-.282.052a1.365,1.365,0,0,1-.256.078c-.282.078-.538.13-.819.182a2.23,2.23,0,0,0-.384.13c-.026,0-.077.026-.1.026l-.614.234-.538.156-.051.026-.154.078c-.179.052-.333.13-.486.182a.8.8,0,0,0-.256.13l-.077.052a.639.639,0,0,0-.179.1.848.848,0,0,0-.154.078.559.559,0,0,0-.128.078c-.051.026-.077.026-.128.052L9.6,2.7a2.567,2.567,0,0,1-.384.182c-.077.052-.154.078-.23.13-.128.078-.23.182-.358.26l-.845.545a2.246,2.246,0,0,1-.256.156,2.692,2.692,0,0,0-.282.182c-.179.13-.333.26-.512.415l-.384.312c-.128.13-.256.234-.384.363l-.768.7c-.128.13-.23.286-.384.441-.2.234-.435.415-.64.649l-.461.545c-.051.078-.1.13-.154.208-.077.1-.128.208-.2.312-.154.234-.333.467-.512.7a4.53,4.53,0,0,0-.282.467,2.155,2.155,0,0,0-.179.338l-.026.052c-.077.13-.154.234-.23.363a1.432,1.432,0,0,1-.154.467,3.627,3.627,0,0,0-.282.545l-.026.052-.23.389-.154.389c-.051.182-.128.363-.179.545l-.026.078a5.49,5.49,0,0,1-.2.6c-.077.234-.128.493-.179.727l-.026.052c-.128.13-.1.286-.128.441,0,.052-.026.1-.026.156-.026.13-.077.234-.1.363a1.539,1.539,0,0,1-.051.338,1.038,1.038,0,0,0-.1.545.781.781,0,0,1-.1.467.2.2,0,0,0-.026.13c-.026.312-.026.6-.051.909C.051,17.572,0,17.962,0,18.377c.026.493,0,.961,0,1.454a.729.729,0,0,0,.026.234c.026.26.077.545.1.8.051.545.128,1.065.179,1.61l.026.078a.6.6,0,0,1,.1.415c0,.078,0,.208.051.26a.587.587,0,0,1,.077.364.767.767,0,0,0,.051.234c.026.078.077.156.1.234A6.016,6.016,0,0,1,.9,24.79l.026.026.23.545a3.719,3.719,0,0,1,.179.571,1.6,1.6,0,0,0,.128.312l.026.052c.077.156.179.338.256.493a3.194,3.194,0,0,1,.179.441,1.056,1.056,0,0,0,.128.234l.026.078.23.389.307.623c.026.052.077.078.1.13.077.156.154.286.23.441a2.168,2.168,0,0,0,.2.312c.077.13.179.286.256.415a5.563,5.563,0,0,0,.333.493c.128.182.23.389.358.571.077.13.154.26.23.364.051.078.1.182.154.26.128.182.256.338.384.519a3.57,3.57,0,0,1,.333.519,5.078,5.078,0,0,0,.435.6l.154.234c.128.156.256.338.384.493.051.078.1.13.154.208.128.182.23.389.358.571.1.156.23.286.333.441l.384.545c.128.182.256.39.41.571a1.438,1.438,0,0,0,.154.208c.128.182.256.338.41.519.077.1.128.208.179.286s.1.13.154.208a3.8,3.8,0,0,1,.23.338l.051.078a3.829,3.829,0,0,1,.256.338l.154.234c.128.208.282.415.435.623.1.156.2.338.307.519.128.208.282.389.41.6a1.076,1.076,0,0,0,.179.286c.077.13.154.234.23.364a.912.912,0,0,1,.128.208,3.645,3.645,0,0,0,.256.415l.23.39.026.052c.077.13.179.26.256.39.128.208.23.389.333.6.077.13.154.234.23.363s.1.26.179.364a1.073,1.073,0,0,0,.179.286,2.845,2.845,0,0,1,.23.364,2.726,2.726,0,0,1,.154.415l.026.052a2.872,2.872,0,0,1,.23.364,2.264,2.264,0,0,1,.179.441l.051.052a2.85,2.85,0,0,1,.2.389,3.5,3.5,0,0,1,.179.467l.026.026c.077.156.154.286.23.441l.077.156c.077.156.128.312.2.467a.571.571,0,0,0,.077.13c.026.052.051.13.077.182s.026.1.051.13a2.707,2.707,0,0,1,.1.26l.026.078a3.944,3.944,0,0,1,.23.467,2.794,2.794,0,0,1,.179.493.966.966,0,0,0,.128.286l.026.052c.179.13.128.363.256.519a1.946,1.946,0,0,1,.179.545l.026.026c.077.182.154.338.23.519a5.29,5.29,0,0,1,.179.6l.026.026c.077.208.179.415.256.649.051.156.1.338.154.519l.026.026a2.02,2.02,0,0,1,.256.753.158.158,0,0,0,.026.1c.077.234.2.441.256.675a2.873,2.873,0,0,0,.128.441c.077.13.051.311.128.467s.077.364.154.545.077.363.154.571c.077.182.077.364.154.571a5.374,5.374,0,0,1,.128.623c.077.286.077.571.154.857a.593.593,0,0,0,.307.39.377.377,0,0,0,.179.026.3.3,0,0,0,.179-.052.967.967,0,0,0,.307-.623c.077-.441.1-.857.2-1.3a5.383,5.383,0,0,0,.128-.623l.026-.078c.1-.13.077-.26.1-.415,0-.052,0-.156.026-.182.128-.13.1-.286.128-.441a.373.373,0,0,1,.051-.156c.026-.078.077-.156.1-.234.077-.26.128-.493.179-.753l.025-.026c.026-.1.077-.182.1-.286.026-.052.026-.1.051-.156l.077-.234c.077-.234.128-.467.2-.7.026-.1.077-.208.1-.312l.077-.156a.44.44,0,0,0,.051-.13c.051-.208.128-.415.179-.649v-.026c.077-.182.154-.338.23-.519.026-.078.026-.156.051-.234.077-.182.179-.364.256-.545a4.513,4.513,0,0,0,.179-.545c.051-.1.077-.234.128-.338l.026-.026c.077-.182.179-.364.256-.545.026-.026,0-.078.026-.1L22.3,48.6a1.56,1.56,0,0,0,.1-.208.158.158,0,0,0,.026-.1c.077-.182.179-.338.256-.519.051-.13.1-.286.154-.441l.025-.026c.1-.026.077-.13.1-.208,0-.052.051-.078.051-.13.026-.052.051-.078.077-.13.077-.156.128-.312.2-.467.026-.052.051-.078.077-.13A1.735,1.735,0,0,1,23.219,45.924Z" transform="translate(0 0.057)" fill="#f6227d"/>
                    <path id="Path_2" data-name="Path 2" d="M36.7,18.61V17.26c0-.052-.026-.1-.026-.156-.025-.156-.077-.312-.1-.467-.025-.182,0-.389-.025-.571a.617.617,0,0,0-.051-.208c-.026-.078-.051-.182-.077-.26-.026-.156,0-.312-.026-.467a3.068,3.068,0,0,0-.128-.519.389.389,0,0,1-.026-.182c-.077-.26-.154-.493-.23-.753A2.911,2.911,0,0,0,35.831,13a1.159,1.159,0,0,1-.154-.415l-.051-.052a.557.557,0,0,1-.077-.182c-.051-.156-.1-.338-.179-.519l-.026-.026c-.026-.078-.077-.13-.1-.208-.051-.156-.128-.312-.179-.467l-.23-.389a2.261,2.261,0,0,1-.179-.441l-.026-.026-.23-.389c-.051-.1-.128-.234-.179-.338-.077-.13-.179-.26-.256-.389a1.94,1.94,0,0,0-.179-.312c-.128-.182-.256-.338-.384-.519-.179-.234-.333-.493-.512-.727-.154-.182-.333-.363-.487-.545l-.614-.7c-.154-.182-.307-.363-.461-.519-.23-.234-.487-.415-.717-.649l-.717-.649a1.409,1.409,0,0,0-.2-.156,5.5,5.5,0,0,1-.486-.338c-.179-.13-.333-.26-.512-.389s-.384-.234-.589-.363a1.415,1.415,0,0,1-.2-.13c-.128-.078-.23-.156-.358-.234L27.153,2.7a2.033,2.033,0,0,0-.41-.208l-.384-.156-.051-.052c-.051-.026-.077-.052-.128-.078a3.106,3.106,0,0,1-.435-.182l-.025.026-.154-.078a1.721,1.721,0,0,1-.512-.182c-.179-.13-.384-.1-.563-.234a2.223,2.223,0,0,0-.589-.182l-.051-.026c-.1-.026-.179-.078-.282-.1-.077-.026-.154,0-.2-.052-.179-.156-.435-.078-.64-.208-.154-.1-.41-.078-.614-.13C21.88.774,21.6.774,21.342.7a6.408,6.408,0,0,0-.742-.1,4.448,4.448,0,0,0-.845-.078,4.148,4.148,0,0,1-.589-.052,1.256,1.256,0,0,0-.41-.078H17.425a6.466,6.466,0,0,0-1,.078c-.282.052-.563.026-.845.052A3.448,3.448,0,0,0,15.1.566l-.307.078a3.033,3.033,0,0,0-.512.078c-.128.026-.282.052-.41.078-.077.026-.179.026-.282.052a.965.965,0,0,1-.256.078h-.051l.1.078c.2.13.461.052.64.208.051.052.128.026.2.052.1.026.179.078.282.1l.051.026a1.963,1.963,0,0,1,.589.182c.179.1.384.078.563.234a1.5,1.5,0,0,0,.512.182l.153.078L16.4,2.1a3.1,3.1,0,0,1,.435.182c.051.026.077.052.128.078l.025.052.384.156c.128.052.256.13.41.208l.384.234c.128.078.23.156.358.234a1.433,1.433,0,0,1,.2.13c.2.13.384.234.589.363.179.13.333.26.512.389.154.1.307.208.486.338.077.052.128.1.2.156l.717.649c.23.208.486.415.717.649.154.156.307.338.461.519l.614.7c.154.182.333.363.487.545.179.234.333.493.512.727.128.182.256.338.384.519a1.939,1.939,0,0,1,.179.312c.077.13.179.26.256.389a2.152,2.152,0,0,1,.179.338l.23.389.026.026c.077.156.128.286.2.441l.23.389c.051.156.128.312.179.467a.78.78,0,0,0,.1.208l.026.026a4.155,4.155,0,0,0,.179.519c.026.052.051.13.077.182l.051.052a1.963,1.963,0,0,0,.128.415,5.2,5.2,0,0,1,.179.675c.077.26.154.493.23.753a.389.389,0,0,1,.026.182,3.835,3.835,0,0,1,.128.519,2.857,2.857,0,0,1,.026.467,1,1,0,0,0,.077.26.617.617,0,0,1,.051.208c.026.182,0,.389.026.571a3.072,3.072,0,0,0,.1.467c0,.052.026.1.026.156v2.7c0,.1-.051.208-.051.286q-.038.428-.077.857a.832.832,0,0,1-.077.234.766.766,0,0,0-.051.234.905.905,0,0,1-.1.519.2.2,0,0,0-.025.13c-.051.156-.077.337-.128.493-.051.26-.128.493-.179.753l-.077.234c0,.026-.025.052-.025.1-.051.13-.077.26-.128.364-.077.208-.128.415-.179.6A.371.371,0,0,0,26.18,25c-.026.078-.051.13-.077.208l-.077.156L26,25.413c-.077.182-.128.389-.2.571a2.088,2.088,0,0,1-.2.415l-.026.052a4.923,4.923,0,0,0-.282.649,3.2,3.2,0,0,1-.179.441c-.077.13-.153.26-.23.415-.051.1-.128.208-.179.312a2.92,2.92,0,0,0-.179.415c-.051.078-.077.156-.128.234-.128.208-.256.39-.384.6s-.2.441-.333.649a3.786,3.786,0,0,1-.23.338,1.948,1.948,0,0,1-.179.312c-.077.13-.179.26-.256.415-.051.078-.1.182-.154.26a6.192,6.192,0,0,1-.333.545c-.128.182-.256.338-.384.519a1.939,1.939,0,0,0-.179.312l-.384.545c-.077.1-.1.208-.179.312-.128.182-.282.364-.41.545a2.757,2.757,0,0,1-.179.286c-.128.182-.256.363-.41.571-.077.1-.128.208-.2.312-.077.078-.128.182-.2.26a.568.568,0,0,1-.077.13,6.017,6.017,0,0,0-.358.493c-.128.182-.23.338-.358.519s-.256.338-.384.519-.23.363-.358.519c-.051.078-.1.13-.154.208a5.37,5.37,0,0,0-.435.623.466.466,0,0,1-.128.182c-.128.182-.256.337-.384.519-.077.1-.128.208-.2.312l-.384.545c-.051.078-.1.182-.154.26-.051.1-.128.234-.179.337s-.128.208-.179.312a8.588,8.588,0,0,0-.512.8c-.077.1-.1.234-.179.338a3.755,3.755,0,0,1-.23.337L15.3,42.7a3.727,3.727,0,0,1-.384.7c-.077.13-.128.26-.2.416-.077.13-.154.26-.23.415-.051.1-.128.208-.179.312-.128.26-.282.519-.41.779-.128.234-.23.493-.358.727a2.86,2.86,0,0,1-.154.286c.026.052.026.078.051.13l.025.026c.077.156.154.286.23.441l.077.156c.077.156.128.312.2.467a.57.57,0,0,0,.077.13c.025.052.051.13.077.182s.026.1.051.13a2.646,2.646,0,0,1,.1.26l.026.078a3.966,3.966,0,0,1,.23.467,2.79,2.79,0,0,1,.179.493.967.967,0,0,0,.128.286l.026.052c.179.13.128.363.23.519a1.949,1.949,0,0,1,.179.545l.026.026a4.593,4.593,0,0,1,.23.519,5.269,5.269,0,0,1,.179.6l.025.026c.077.208.179.415.256.649.051.156.1.338.154.519l.026.026a2.673,2.673,0,0,1,.282.753.159.159,0,0,0,.025.1c.077.234.2.441.256.675a2.843,2.843,0,0,0,.128.441c.077.13.051.312.128.467s.077.364.154.545.077.363.154.571c.077.182.077.363.154.571a5.414,5.414,0,0,1,.128.623c.077.286.077.571.154.857a.594.594,0,0,0,.307.389.375.375,0,0,0,.179.026.3.3,0,0,0,.179-.052.967.967,0,0,0,.307-.623c.077-.441.1-.857.2-1.3a5.409,5.409,0,0,0,.128-.623l.025-.078c.1-.13.077-.26.1-.415,0-.052,0-.156.026-.182.128-.13.1-.286.128-.441a.374.374,0,0,1,.051-.156c.026-.078.077-.156.1-.234.077-.26.128-.493.179-.753l.026-.026c.025-.1.077-.182.1-.286.025-.052.025-.1.051-.156l.077-.234c.077-.234.128-.467.2-.7.026-.1.077-.208.1-.312l.077-.156a.444.444,0,0,0,.051-.13c.051-.208.128-.415.179-.649v-.026c.077-.182.154-.338.23-.519.026-.078.026-.156.051-.234.077-.182.179-.364.256-.545a4.5,4.5,0,0,0,.179-.545c.051-.1.077-.234.128-.338v-.026c.077-.182.179-.363.256-.545.026-.026,0-.078.026-.1l.025-.078a1.527,1.527,0,0,0,.1-.208.158.158,0,0,0,.026-.1c.077-.182.179-.337.256-.519.051-.13.1-.286.154-.441l.026-.026c.1-.026.1-.13.1-.208,0-.052.051-.078.051-.13.026-.052.051-.078.077-.13.077-.156.128-.312.2-.467s.154-.286.23-.415c.128-.234.23-.493.358-.727.128-.26.256-.519.41-.779.051-.1.128-.208.179-.312.077-.13.154-.26.23-.415.077-.13.128-.286.2-.415a3.732,3.732,0,0,0,.384-.7l.025-.052c.077-.13.179-.234.23-.338.077-.1.1-.234.179-.338.154-.26.358-.519.512-.8a1.949,1.949,0,0,0,.179-.312c.051-.1.128-.234.179-.338.051-.078.1-.182.154-.26l.384-.545c.077-.1.128-.208.2-.312.128-.182.256-.338.384-.519a.465.465,0,0,0,.128-.182A3.4,3.4,0,0,1,27.665,38a1.445,1.445,0,0,1,.154-.208c.128-.182.23-.364.358-.519.128-.182.256-.337.384-.519s.23-.338.358-.519.256-.337.358-.493a.57.57,0,0,1,.077-.13c.077-.078.128-.182.2-.26.077-.1.128-.208.2-.312.128-.182.282-.363.41-.571a2.758,2.758,0,0,1,.179-.286c.128-.182.282-.364.41-.545.077-.1.1-.208.179-.312l.384-.545a1.951,1.951,0,0,0,.179-.311c.128-.182.256-.338.384-.519a6.242,6.242,0,0,0,.333-.545c.051-.078.1-.182.154-.26.077-.13.179-.26.256-.415.077-.1.1-.208.179-.312a3.832,3.832,0,0,1,.23-.337c.128-.208.2-.442.333-.649s.256-.39.384-.6a1.056,1.056,0,0,0,.128-.234,2.9,2.9,0,0,0,.179-.415,1.948,1.948,0,0,1,.179-.312c.077-.13.154-.26.23-.415a2.261,2.261,0,0,0,.179-.441c.1-.208.2-.441.282-.649l.026-.052a3.133,3.133,0,0,0,.2-.415c.077-.182.128-.39.2-.571l.026-.052.077-.156c.026-.078.051-.13.077-.208a.372.372,0,0,0,.051-.156c.077-.208.128-.415.179-.6.051-.13.077-.26.128-.363,0-.026.025-.052.025-.1a.832.832,0,0,0,.077-.234c.077-.26.128-.493.179-.753.051-.156.077-.338.128-.493a.2.2,0,0,1,.025-.13.739.739,0,0,0,.1-.519.767.767,0,0,1,.051-.234l.077-.234.077-.857c0-.1.051-.182.051-.286Z" transform="translate(10.043 0.057)" fill="#0551d8"/>
                    <path id="Path_3" data-name="Path 3" d="M7.616,27.648c.1.208.2.415.333.623.026.052.077.078.1.13.077.156.154.286.23.441a2.168,2.168,0,0,0,.2.312c.077.13.179.286.256.415.1.156.23.338.333.493.128.182.23.389.358.571.077.13.154.26.23.364.051.078.1.182.154.26.128.182.256.338.384.519a3.57,3.57,0,0,1,.333.519,5.064,5.064,0,0,0,.435.6l.154.234c.128.156.256.338.384.493.051.078.1.13.154.208.128.182.23.389.358.571.1.156.23.286.333.441l.384.545c.128.182.282.39.41.571a1.438,1.438,0,0,0,.154.208c.128.182.256.338.384.519.077.1.128.208.179.286s.1.13.154.208a3.821,3.821,0,0,1,.23.338c.128.182.23.286.307.415l.154.234c.128.208.282.415.435.623.1.156.2.337.307.519.128.208.282.389.41.6a1.072,1.072,0,0,0,.179.286c.077.13.154.234.23.364a.911.911,0,0,1,.128.208,3.654,3.654,0,0,0,.256.416l.23.389c.1.182.2.312.282.441.128.208.23.389.333.6.077.13.154.234.23.364s.1.26.179.363a2.739,2.739,0,0,0,.179.286,2.852,2.852,0,0,1,.23.364,2.723,2.723,0,0,1,.154.415,4.785,4.785,0,0,1,.256.415c.077.13.128.286.2.441a2.129,2.129,0,0,1,.256.441,1.323,1.323,0,0,1,.128.338c.051-.1.1-.182.154-.286.128-.234.23-.493.358-.727.128-.26.256-.519.41-.779.051-.1.128-.208.179-.312.077-.13.154-.26.23-.415.077-.13.128-.286.2-.415a3.717,3.717,0,0,0,.384-.7c.1-.182.2-.286.256-.389.077-.1.1-.234.179-.338.154-.26.358-.519.512-.8a1.948,1.948,0,0,0,.179-.312c.051-.1.128-.234.179-.338.051-.078.1-.182.154-.26l.384-.545c.077-.1.128-.208.2-.312.128-.182.256-.337.384-.519a.467.467,0,0,0,.128-.182,3.4,3.4,0,0,1,.435-.623,1.435,1.435,0,0,1,.154-.208c.128-.182.23-.364.358-.519.128-.182.256-.338.384-.519s.23-.338.358-.519.256-.338.358-.493a.579.579,0,0,1,.077-.13,1.79,1.79,0,0,0,.2-.26c.077-.1.128-.208.2-.312.128-.182.256-.363.41-.571.077-.1.128-.208.179-.286.128-.182.282-.364.41-.545.077-.1.1-.208.179-.312l.384-.545a1.934,1.934,0,0,0,.179-.312c.128-.182.256-.337.384-.519a6.218,6.218,0,0,0,.333-.545c.051-.078.1-.182.154-.26.077-.13.179-.26.256-.415a1.94,1.94,0,0,1,.179-.312,3.823,3.823,0,0,1,.23-.338c.128-.208.2-.441.333-.649s.256-.39.384-.6a1.056,1.056,0,0,0,.128-.234,2.9,2.9,0,0,0,.179-.415,1.953,1.953,0,0,1,.179-.312c.077-.13.154-.26.23-.415.077-.13.1-.286.179-.441.1-.208.2-.441.282-.649a3.926,3.926,0,0,0,.23-.467c.077-.182.128-.389.2-.571l.1-.208c.025-.078.051-.13.077-.208a.372.372,0,0,0,.051-.156c.051-.208.128-.415.179-.6.051-.13.077-.26.128-.364a2.064,2.064,0,0,0,.1-.337c.077-.26.128-.493.179-.753.051-.156.077-.338.128-.493a.2.2,0,0,1,.026-.13.739.739,0,0,0,.1-.519.766.766,0,0,1,.051-.234l.077-.234.077-.857c0-.1.051-.182.051-.286v-2.7a.333.333,0,0,0-.026-.156c-.026-.156-.077-.312-.1-.467-.026-.182,0-.389-.026-.571a.621.621,0,0,0-.051-.208c-.026-.078-.051-.182-.077-.26a2.876,2.876,0,0,1-.025-.467,3.085,3.085,0,0,0-.128-.519.389.389,0,0,1-.026-.182c-.077-.26-.154-.493-.23-.753a2.9,2.9,0,0,0-.179-.675.793.793,0,0,1-.128-.415.536.536,0,0,1-.128-.234c-.051-.156-.1-.338-.179-.519a2.336,2.336,0,0,1-.128-.234c-.051-.156-.128-.312-.179-.467l-.23-.389c-.077-.13-.128-.286-.2-.441-.1-.156-.179-.286-.256-.415-.051-.1-.128-.234-.179-.338-.077-.13-.179-.26-.256-.389a1.94,1.94,0,0,0-.179-.312c-.128-.182-.256-.338-.384-.519-.179-.234-.333-.493-.512-.727-.154-.182-.333-.363-.486-.545l-.614-.7c-.154-.182-.307-.363-.461-.519-.23-.234-.486-.415-.717-.649l-.717-.649c-.077-.052-.128-.1-.2-.156a5.48,5.48,0,0,1-.486-.338c-.179-.13-.333-.26-.512-.389s-.384-.234-.589-.363a1.433,1.433,0,0,1-.2-.13c-.128-.078-.23-.156-.358-.234l-.384-.234a2.024,2.024,0,0,0-.41-.208L22.924,2.1a.566.566,0,0,0-.154-.13,3.088,3.088,0,0,1-.435-.182c0-.026-.051-.052-.1-.078a1.72,1.72,0,0,1-.512-.182c-.179-.13-.384-.1-.563-.234a2.559,2.559,0,0,0-.589-.182c-.154-.052-.23-.1-.333-.13-.077-.026-.154,0-.2-.052-.179-.156-.435-.078-.64-.208a3.831,3.831,0,0,0-.819.156,2.225,2.225,0,0,0-.384.13c-.026,0-.077.026-.1.026l-.615.234-.537.156c-.128.078-.179.1-.23.13-.179.052-.333.13-.486.182a.8.8,0,0,0-.256.13,1.628,1.628,0,0,0-.256.156c-.051.026-.077.052-.128.078a.558.558,0,0,0-.128.078c-.051.026-.077.026-.128.052l-.384.234a2.567,2.567,0,0,1-.384.182,1.847,1.847,0,0,0-.23.13c-.128.078-.23.182-.358.26l-.845.545a2.244,2.244,0,0,1-.256.156,2.694,2.694,0,0,0-.282.182c-.179.13-.333.26-.512.415l-.384.312c-.128.13-.256.234-.384.363l-.768.7c-.128.13-.256.286-.384.441-.2.234-.435.415-.64.649l-.461.545c-.051.078-.1.13-.154.208-.077.1-.128.208-.2.312-.179.234-.333.467-.512.7a4.53,4.53,0,0,0-.282.467,2.157,2.157,0,0,0-.179.338c-.1.182-.179.286-.256.415a2.317,2.317,0,0,1-.2.441,3.625,3.625,0,0,0-.282.545c-.1.182-.179.312-.256.441l-.154.389c-.051.182-.128.363-.179.545-.1.286-.179.467-.256.675-.077.234-.128.493-.179.727a.792.792,0,0,0-.154.493.373.373,0,0,1-.051.156c-.026.13-.077.234-.1.363a1.539,1.539,0,0,1-.051.338,1.038,1.038,0,0,0-.1.545.781.781,0,0,1-.1.467.2.2,0,0,0-.026.13,2.348,2.348,0,0,1,.051.857,6.517,6.517,0,0,0-.077,1.22c.026.493,0,.961,0,1.454a.729.729,0,0,0,.026.234c.026.26.077.545.1.8.051.545.128,1.065.179,1.61a1.01,1.01,0,0,1,.128.493c0,.078,0,.208.051.26.1.1.077.234.1.364a.767.767,0,0,0,.051.234c.026.078.077.156.1.234a6.021,6.021,0,0,1,.179.727c.1.208.179.389.256.571a3.718,3.718,0,0,1,.179.571c.026.1.077.208.1.312.1.208.2.39.282.545a3.194,3.194,0,0,1,.179.441,1.54,1.54,0,0,0,.1.208C7.462,27.389,7.539,27.518,7.616,27.648Z" transform="translate(4.032 0.314)" fill="#4a2485"/>
                </g>
            </g>
        </g>
    </g>
</svg>
