<svg xmlns="http://www.w3.org/2000/svg" width="201.979" height="59.274" viewBox="0 0 201.979 59.274">
    <g id="Symbols" transform="translate(0 -0.133)">
        <g id="topbar" transform="translate(0 0.133)">
            <g id="logo" transform="translate(0 0)">
                <g id="Shape" transform="translate(0 0)">
                    <path id="Path_1" d="M23.219,45.924a2.865,2.865,0,0,0-.2-.389l-.051-.052c-.077-.156-.128-.286-.2-.441-.077-.13-.154-.234-.23-.363l-.026-.052c-.051-.13-.1-.286-.154-.415-.077-.13-.154-.234-.23-.364-.051-.1-.128-.182-.179-.286a1.592,1.592,0,0,0-.179-.363c-.077-.13-.154-.234-.23-.364-.1-.208-.23-.389-.333-.6a3.379,3.379,0,0,0-.256-.389l-.026-.052-.23-.389a3.653,3.653,0,0,0-.256-.416.911.911,0,0,1-.128-.208c-.077-.13-.154-.234-.23-.364a1.075,1.075,0,0,0-.179-.286c-.128-.208-.282-.389-.41-.6-.1-.156-.2-.338-.307-.519-.128-.208-.282-.416-.435-.623l-.154-.234a3.8,3.8,0,0,1-.256-.337l-.051-.078a3.772,3.772,0,0,1-.23-.338c-.051-.078-.1-.13-.154-.208-.077-.1-.128-.208-.179-.286-.128-.182-.256-.338-.384-.519a1.435,1.435,0,0,0-.154-.208c-.128-.182-.256-.364-.41-.571l-.384-.545c-.1-.156-.23-.286-.333-.441a4.277,4.277,0,0,1-.358-.571c-.051-.078-.1-.13-.154-.208-.128-.156-.256-.337-.384-.493L15,33.124c-.154-.208-.282-.389-.435-.6-.1-.156-.2-.338-.333-.519s-.256-.338-.384-.519c-.051-.078-.1-.182-.154-.26-.077-.13-.154-.26-.23-.364-.128-.182-.23-.389-.358-.571-.1-.156-.23-.338-.333-.493-.077-.13-.179-.286-.256-.415-.077-.1-.128-.208-.2-.312-.077-.156-.154-.286-.23-.441-.026-.052-.077-.078-.1-.13-.1-.208-.2-.415-.333-.623l-.23-.389-.026-.078c-.051-.078-.077-.156-.128-.234-.077-.156-.128-.312-.179-.441-.077-.182-.179-.338-.256-.493l-.026-.052a1.482,1.482,0,0,1-.1-.312,4.91,4.91,0,0,1-.179-.571l-.23-.545-.051.026c-.051-.234-.128-.467-.179-.727-.026-.078-.077-.156-.1-.234a.767.767,0,0,1-.051-.234c-.026-.13,0-.26-.1-.364-.051-.052-.026-.182-.051-.26a.6.6,0,0,0-.1-.415l-.026-.078c-.051-.545-.128-1.064-.179-1.61-.026-.26-.077-.545-.1-.8,0-.078-.026-.156-.026-.234,0-.493.026-.961,0-1.454a9.759,9.759,0,0,1,.077-1.22c.026-.312.026-.6.051-.909a.2.2,0,0,1,.026-.13.706.706,0,0,0,.1-.467,1.037,1.037,0,0,1,.1-.545c.051-.078.026-.208.051-.338s.077-.234.1-.363c.026-.052.026-.1.051-.156.026-.156,0-.312.128-.441l.026-.052c.051-.234.1-.493.179-.727a5.72,5.72,0,0,1,.23-.6l.026-.078c.051-.182.128-.363.179-.545a2.457,2.457,0,0,1,.154-.389l.23-.389.026-.052a1.581,1.581,0,0,1,.282-.545c.077-.13.128-.312.2-.441s.154-.234.23-.363l.026-.052a2.158,2.158,0,0,1,.179-.338c.1-.156.179-.312.282-.467.154-.234.333-.467.512-.7.077-.1.128-.208.2-.312a1.438,1.438,0,0,1,.154-.208A4.686,4.686,0,0,1,13.593,7c.2-.234.435-.441.64-.649.128-.13.23-.312.384-.441l.768-.7a4.941,4.941,0,0,0,.384-.363l.384-.312c.179-.13.333-.286.512-.415.1-.078.2-.13.282-.182s.179-.1.256-.156l.845-.545c.128-.078.23-.182.358-.26.077-.052.154-.078.23-.13.128-.052.256-.13.384-.182l.384-.234c.025-.026.077-.026.128-.052a.558.558,0,0,0,.128-.078c-.026,0,.026-.026.051-.052.051-.026.128-.078.179-.1l.077-.026c.077-.052.179-.078.256-.13.154-.052.333-.13.486-.182l.154-.078.051-.026.538-.156.614-.234a.429.429,0,0,1,.128-.052c.128-.052.256-.078.384-.13.256-.052.512-.1.768-.182a3.137,3.137,0,0,0-.563-.1c-.23-.078-.512-.078-.768-.156a6.812,6.812,0,0,0-.717-.1,4.445,4.445,0,0,0-.845-.078,4.145,4.145,0,0,1-.589-.052,1.256,1.256,0,0,0-.41-.078H18.124a6.466,6.466,0,0,0-1,.078c-.282.052-.563.026-.845.052a3.451,3.451,0,0,0-.486.052l-.307.078a3.031,3.031,0,0,0-.512.078,3.915,3.915,0,0,1-.384.1c-.077.026-.179.026-.282.052a1.365,1.365,0,0,1-.256.078c-.282.078-.538.13-.819.182a2.23,2.23,0,0,0-.384.13c-.026,0-.077.026-.1.026l-.614.234-.538.156-.051.026-.154.078c-.179.052-.333.13-.486.182a.8.8,0,0,0-.256.13l-.077.052a.639.639,0,0,0-.179.1.848.848,0,0,0-.154.078.559.559,0,0,0-.128.078c-.051.026-.077.026-.128.052L9.6,2.7a2.567,2.567,0,0,1-.384.182c-.077.052-.154.078-.23.13-.128.078-.23.182-.358.26l-.845.545a2.246,2.246,0,0,1-.256.156,2.692,2.692,0,0,0-.282.182c-.179.13-.333.26-.512.415l-.384.312c-.128.13-.256.234-.384.363l-.768.7c-.128.13-.23.286-.384.441-.2.234-.435.415-.64.649l-.461.545c-.051.078-.1.13-.154.208-.077.1-.128.208-.2.312-.154.234-.333.467-.512.7a4.53,4.53,0,0,0-.282.467,2.155,2.155,0,0,0-.179.338l-.026.052c-.077.13-.154.234-.23.363a1.432,1.432,0,0,1-.154.467,3.627,3.627,0,0,0-.282.545l-.026.052-.23.389-.154.389c-.051.182-.128.363-.179.545l-.026.078a5.49,5.49,0,0,1-.2.6c-.077.234-.128.493-.179.727l-.026.052c-.128.13-.1.286-.128.441,0,.052-.026.1-.026.156-.026.13-.077.234-.1.363a1.539,1.539,0,0,1-.051.338,1.038,1.038,0,0,0-.1.545.781.781,0,0,1-.1.467.2.2,0,0,0-.026.13c-.026.312-.026.6-.051.909C.051,17.572,0,17.962,0,18.377c.026.493,0,.961,0,1.454a.729.729,0,0,0,.026.234c.026.26.077.545.1.8.051.545.128,1.065.179,1.61l.026.078a.6.6,0,0,1,.1.415c0,.078,0,.208.051.26a.587.587,0,0,1,.077.364.767.767,0,0,0,.051.234c.026.078.077.156.1.234A6.016,6.016,0,0,1,.9,24.79l.026.026.23.545a3.719,3.719,0,0,1,.179.571,1.6,1.6,0,0,0,.128.312l.026.052c.077.156.179.338.256.493a3.194,3.194,0,0,1,.179.441,1.056,1.056,0,0,0,.128.234l.026.078.23.389.307.623c.026.052.077.078.1.13.077.156.154.286.23.441a2.168,2.168,0,0,0,.2.312c.077.13.179.286.256.415a5.563,5.563,0,0,0,.333.493c.128.182.23.389.358.571.077.13.154.26.23.364.051.078.1.182.154.26.128.182.256.338.384.519a3.57,3.57,0,0,1,.333.519,5.078,5.078,0,0,0,.435.6l.154.234c.128.156.256.338.384.493.051.078.1.13.154.208.128.182.23.389.358.571.1.156.23.286.333.441l.384.545c.128.182.256.39.41.571a1.438,1.438,0,0,0,.154.208c.128.182.256.338.41.519.077.1.128.208.179.286s.1.13.154.208a3.8,3.8,0,0,1,.23.338l.051.078a3.829,3.829,0,0,1,.256.338l.154.234c.128.208.282.415.435.623.1.156.2.338.307.519.128.208.282.389.41.6a1.076,1.076,0,0,0,.179.286c.077.13.154.234.23.364a.912.912,0,0,1,.128.208,3.645,3.645,0,0,0,.256.415l.23.39.026.052c.077.13.179.26.256.39.128.208.23.389.333.6.077.13.154.234.23.363s.1.26.179.364a1.073,1.073,0,0,0,.179.286,2.845,2.845,0,0,1,.23.364,2.726,2.726,0,0,1,.154.415l.026.052a2.872,2.872,0,0,1,.23.364,2.264,2.264,0,0,1,.179.441l.051.052a2.85,2.85,0,0,1,.2.389,3.5,3.5,0,0,1,.179.467l.026.026c.077.156.154.286.23.441l.077.156c.077.156.128.312.2.467a.571.571,0,0,0,.077.13c.026.052.051.13.077.182s.026.1.051.13a2.707,2.707,0,0,1,.1.26l.026.078a3.944,3.944,0,0,1,.23.467,2.794,2.794,0,0,1,.179.493.966.966,0,0,0,.128.286l.026.052c.179.13.128.363.256.519a1.946,1.946,0,0,1,.179.545l.026.026c.077.182.154.338.23.519a5.29,5.29,0,0,1,.179.6l.026.026c.077.208.179.415.256.649.051.156.1.338.154.519l.026.026a2.02,2.02,0,0,1,.256.753.158.158,0,0,0,.026.1c.077.234.2.441.256.675a2.873,2.873,0,0,0,.128.441c.077.13.051.311.128.467s.077.364.154.545.077.363.154.571c.077.182.077.364.154.571a5.374,5.374,0,0,1,.128.623c.077.286.077.571.154.857a.593.593,0,0,0,.307.39.377.377,0,0,0,.179.026.3.3,0,0,0,.179-.052.967.967,0,0,0,.307-.623c.077-.441.1-.857.2-1.3a5.383,5.383,0,0,0,.128-.623l.026-.078c.1-.13.077-.26.1-.415,0-.052,0-.156.026-.182.128-.13.1-.286.128-.441a.373.373,0,0,1,.051-.156c.026-.078.077-.156.1-.234.077-.26.128-.493.179-.753l.025-.026c.026-.1.077-.182.1-.286.026-.052.026-.1.051-.156l.077-.234c.077-.234.128-.467.2-.7.026-.1.077-.208.1-.312l.077-.156a.44.44,0,0,0,.051-.13c.051-.208.128-.415.179-.649v-.026c.077-.182.154-.338.23-.519.026-.078.026-.156.051-.234.077-.182.179-.364.256-.545a4.513,4.513,0,0,0,.179-.545c.051-.1.077-.234.128-.338l.026-.026c.077-.182.179-.364.256-.545.026-.026,0-.078.026-.1L22.3,48.6a1.56,1.56,0,0,0,.1-.208.158.158,0,0,0,.026-.1c.077-.182.179-.338.256-.519.051-.13.1-.286.154-.441l.025-.026c.1-.026.077-.13.1-.208,0-.052.051-.078.051-.13.026-.052.051-.078.077-.13.077-.156.128-.312.2-.467.026-.052.051-.078.077-.13A1.735,1.735,0,0,1,23.219,45.924Z" transform="translate(0 0.057)" fill="#f6227d"/>
                    <path id="Path_2" d="M36.7,18.61V17.26c0-.052-.026-.1-.026-.156-.025-.156-.077-.312-.1-.467-.025-.182,0-.389-.025-.571a.617.617,0,0,0-.051-.208c-.026-.078-.051-.182-.077-.26-.026-.156,0-.312-.026-.467a3.068,3.068,0,0,0-.128-.519.389.389,0,0,1-.026-.182c-.077-.26-.154-.493-.23-.753A2.911,2.911,0,0,0,35.831,13a1.159,1.159,0,0,1-.154-.415l-.051-.052a.557.557,0,0,1-.077-.182c-.051-.156-.1-.338-.179-.519l-.026-.026c-.026-.078-.077-.13-.1-.208-.051-.156-.128-.312-.179-.467l-.23-.389a2.261,2.261,0,0,1-.179-.441l-.026-.026-.23-.389c-.051-.1-.128-.234-.179-.338-.077-.13-.179-.26-.256-.389a1.94,1.94,0,0,0-.179-.312c-.128-.182-.256-.338-.384-.519-.179-.234-.333-.493-.512-.727-.154-.182-.333-.363-.487-.545l-.614-.7c-.154-.182-.307-.363-.461-.519-.23-.234-.487-.415-.717-.649l-.717-.649a1.409,1.409,0,0,0-.2-.156,5.5,5.5,0,0,1-.486-.338c-.179-.13-.333-.26-.512-.389s-.384-.234-.589-.363a1.415,1.415,0,0,1-.2-.13c-.128-.078-.23-.156-.358-.234L27.153,2.7a2.033,2.033,0,0,0-.41-.208l-.384-.156-.051-.052c-.051-.026-.077-.052-.128-.078a3.106,3.106,0,0,1-.435-.182l-.025.026-.154-.078a1.721,1.721,0,0,1-.512-.182c-.179-.13-.384-.1-.563-.234a2.223,2.223,0,0,0-.589-.182l-.051-.026c-.1-.026-.179-.078-.282-.1-.077-.026-.154,0-.2-.052-.179-.156-.435-.078-.64-.208-.154-.1-.41-.078-.614-.13C21.88.774,21.6.774,21.342.7a6.408,6.408,0,0,0-.742-.1,4.448,4.448,0,0,0-.845-.078,4.148,4.148,0,0,1-.589-.052,1.256,1.256,0,0,0-.41-.078H17.425a6.466,6.466,0,0,0-1,.078c-.282.052-.563.026-.845.052A3.448,3.448,0,0,0,15.1.566l-.307.078a3.033,3.033,0,0,0-.512.078c-.128.026-.282.052-.41.078-.077.026-.179.026-.282.052a.965.965,0,0,1-.256.078h-.051l.1.078c.2.13.461.052.64.208.051.052.128.026.2.052.1.026.179.078.282.1l.051.026a1.963,1.963,0,0,1,.589.182c.179.1.384.078.563.234a1.5,1.5,0,0,0,.512.182l.153.078L16.4,2.1a3.1,3.1,0,0,1,.435.182c.051.026.077.052.128.078l.025.052.384.156c.128.052.256.13.41.208l.384.234c.128.078.23.156.358.234a1.433,1.433,0,0,1,.2.13c.2.13.384.234.589.363.179.13.333.26.512.389.154.1.307.208.486.338.077.052.128.1.2.156l.717.649c.23.208.486.415.717.649.154.156.307.338.461.519l.614.7c.154.182.333.363.487.545.179.234.333.493.512.727.128.182.256.338.384.519a1.939,1.939,0,0,1,.179.312c.077.13.179.26.256.389a2.152,2.152,0,0,1,.179.338l.23.389.026.026c.077.156.128.286.2.441l.23.389c.051.156.128.312.179.467a.78.78,0,0,0,.1.208l.026.026a4.155,4.155,0,0,0,.179.519c.026.052.051.13.077.182l.051.052a1.963,1.963,0,0,0,.128.415,5.2,5.2,0,0,1,.179.675c.077.26.154.493.23.753a.389.389,0,0,1,.026.182,3.835,3.835,0,0,1,.128.519,2.857,2.857,0,0,1,.026.467,1,1,0,0,0,.077.26.617.617,0,0,1,.051.208c.026.182,0,.389.026.571a3.072,3.072,0,0,0,.1.467c0,.052.026.1.026.156v2.7c0,.1-.051.208-.051.286q-.038.428-.077.857a.832.832,0,0,1-.077.234.766.766,0,0,0-.051.234.905.905,0,0,1-.1.519.2.2,0,0,0-.025.13c-.051.156-.077.337-.128.493-.051.26-.128.493-.179.753l-.077.234c0,.026-.025.052-.025.1-.051.13-.077.26-.128.364-.077.208-.128.415-.179.6A.371.371,0,0,0,26.18,25c-.026.078-.051.13-.077.208l-.077.156L26,25.413c-.077.182-.128.389-.2.571a2.088,2.088,0,0,1-.2.415l-.026.052a4.923,4.923,0,0,0-.282.649,3.2,3.2,0,0,1-.179.441c-.077.13-.153.26-.23.415-.051.1-.128.208-.179.312a2.92,2.92,0,0,0-.179.415c-.051.078-.077.156-.128.234-.128.208-.256.39-.384.6s-.2.441-.333.649a3.786,3.786,0,0,1-.23.338,1.948,1.948,0,0,1-.179.312c-.077.13-.179.26-.256.415-.051.078-.1.182-.154.26a6.192,6.192,0,0,1-.333.545c-.128.182-.256.338-.384.519a1.939,1.939,0,0,0-.179.312l-.384.545c-.077.1-.1.208-.179.312-.128.182-.282.364-.41.545a2.757,2.757,0,0,1-.179.286c-.128.182-.256.363-.41.571-.077.1-.128.208-.2.312-.077.078-.128.182-.2.26a.568.568,0,0,1-.077.13,6.017,6.017,0,0,0-.358.493c-.128.182-.23.338-.358.519s-.256.338-.384.519-.23.363-.358.519c-.051.078-.1.13-.154.208a5.37,5.37,0,0,0-.435.623.466.466,0,0,1-.128.182c-.128.182-.256.337-.384.519-.077.1-.128.208-.2.312l-.384.545c-.051.078-.1.182-.154.26-.051.1-.128.234-.179.337s-.128.208-.179.312a8.588,8.588,0,0,0-.512.8c-.077.1-.1.234-.179.338a3.755,3.755,0,0,1-.23.337L15.3,42.7a3.727,3.727,0,0,1-.384.7c-.077.13-.128.26-.2.416-.077.13-.154.26-.23.415-.051.1-.128.208-.179.312-.128.26-.282.519-.41.779-.128.234-.23.493-.358.727a2.86,2.86,0,0,1-.154.286c.026.052.026.078.051.13l.025.026c.077.156.154.286.23.441l.077.156c.077.156.128.312.2.467a.57.57,0,0,0,.077.13c.025.052.051.13.077.182s.026.1.051.13a2.646,2.646,0,0,1,.1.26l.026.078a3.966,3.966,0,0,1,.23.467,2.79,2.79,0,0,1,.179.493.967.967,0,0,0,.128.286l.026.052c.179.13.128.363.23.519a1.949,1.949,0,0,1,.179.545l.026.026a4.593,4.593,0,0,1,.23.519,5.269,5.269,0,0,1,.179.6l.025.026c.077.208.179.415.256.649.051.156.1.338.154.519l.026.026a2.673,2.673,0,0,1,.282.753.159.159,0,0,0,.025.1c.077.234.2.441.256.675a2.843,2.843,0,0,0,.128.441c.077.13.051.312.128.467s.077.364.154.545.077.363.154.571c.077.182.077.363.154.571a5.414,5.414,0,0,1,.128.623c.077.286.077.571.154.857a.594.594,0,0,0,.307.389.375.375,0,0,0,.179.026.3.3,0,0,0,.179-.052.967.967,0,0,0,.307-.623c.077-.441.1-.857.2-1.3a5.409,5.409,0,0,0,.128-.623l.025-.078c.1-.13.077-.26.1-.415,0-.052,0-.156.026-.182.128-.13.1-.286.128-.441a.374.374,0,0,1,.051-.156c.026-.078.077-.156.1-.234.077-.26.128-.493.179-.753l.026-.026c.025-.1.077-.182.1-.286.025-.052.025-.1.051-.156l.077-.234c.077-.234.128-.467.2-.7.026-.1.077-.208.1-.312l.077-.156a.444.444,0,0,0,.051-.13c.051-.208.128-.415.179-.649v-.026c.077-.182.154-.338.23-.519.026-.078.026-.156.051-.234.077-.182.179-.364.256-.545a4.5,4.5,0,0,0,.179-.545c.051-.1.077-.234.128-.338v-.026c.077-.182.179-.363.256-.545.026-.026,0-.078.026-.1l.025-.078a1.527,1.527,0,0,0,.1-.208.158.158,0,0,0,.026-.1c.077-.182.179-.337.256-.519.051-.13.1-.286.154-.441l.026-.026c.1-.026.1-.13.1-.208,0-.052.051-.078.051-.13.026-.052.051-.078.077-.13.077-.156.128-.312.2-.467s.154-.286.23-.415c.128-.234.23-.493.358-.727.128-.26.256-.519.41-.779.051-.1.128-.208.179-.312.077-.13.154-.26.23-.415.077-.13.128-.286.2-.415a3.732,3.732,0,0,0,.384-.7l.025-.052c.077-.13.179-.234.23-.338.077-.1.1-.234.179-.338.154-.26.358-.519.512-.8a1.949,1.949,0,0,0,.179-.312c.051-.1.128-.234.179-.338.051-.078.1-.182.154-.26l.384-.545c.077-.1.128-.208.2-.312.128-.182.256-.338.384-.519a.465.465,0,0,0,.128-.182A3.4,3.4,0,0,1,27.665,38a1.445,1.445,0,0,1,.154-.208c.128-.182.23-.364.358-.519.128-.182.256-.337.384-.519s.23-.338.358-.519.256-.337.358-.493a.57.57,0,0,1,.077-.13c.077-.078.128-.182.2-.26.077-.1.128-.208.2-.312.128-.182.282-.363.41-.571a2.758,2.758,0,0,1,.179-.286c.128-.182.282-.364.41-.545.077-.1.1-.208.179-.312l.384-.545a1.951,1.951,0,0,0,.179-.311c.128-.182.256-.338.384-.519a6.242,6.242,0,0,0,.333-.545c.051-.078.1-.182.154-.26.077-.13.179-.26.256-.415.077-.1.1-.208.179-.312a3.832,3.832,0,0,1,.23-.337c.128-.208.2-.442.333-.649s.256-.39.384-.6a1.056,1.056,0,0,0,.128-.234,2.9,2.9,0,0,0,.179-.415,1.948,1.948,0,0,1,.179-.312c.077-.13.154-.26.23-.415a2.261,2.261,0,0,0,.179-.441c.1-.208.2-.441.282-.649l.026-.052a3.133,3.133,0,0,0,.2-.415c.077-.182.128-.39.2-.571l.026-.052.077-.156c.026-.078.051-.13.077-.208a.372.372,0,0,0,.051-.156c.077-.208.128-.415.179-.6.051-.13.077-.26.128-.363,0-.026.025-.052.025-.1a.832.832,0,0,0,.077-.234c.077-.26.128-.493.179-.753.051-.156.077-.338.128-.493a.2.2,0,0,1,.025-.13.739.739,0,0,0,.1-.519.767.767,0,0,1,.051-.234l.077-.234.077-.857c0-.1.051-.182.051-.286Z" transform="translate(10.043 0.057)" fill="#0551d8"/>
                    <path id="Path_3" d="M7.616,27.648c.1.208.2.415.333.623.026.052.077.078.1.13.077.156.154.286.23.441a2.168,2.168,0,0,0,.2.312c.077.13.179.286.256.415.1.156.23.338.333.493.128.182.23.389.358.571.077.13.154.26.23.364.051.078.1.182.154.26.128.182.256.338.384.519a3.57,3.57,0,0,1,.333.519,5.064,5.064,0,0,0,.435.6l.154.234c.128.156.256.338.384.493.051.078.1.13.154.208.128.182.23.389.358.571.1.156.23.286.333.441l.384.545c.128.182.282.39.41.571a1.438,1.438,0,0,0,.154.208c.128.182.256.338.384.519.077.1.128.208.179.286s.1.13.154.208a3.821,3.821,0,0,1,.23.338c.128.182.23.286.307.415l.154.234c.128.208.282.415.435.623.1.156.2.337.307.519.128.208.282.389.41.6a1.072,1.072,0,0,0,.179.286c.077.13.154.234.23.364a.911.911,0,0,1,.128.208,3.654,3.654,0,0,0,.256.416l.23.389c.1.182.2.312.282.441.128.208.23.389.333.6.077.13.154.234.23.364s.1.26.179.363a2.739,2.739,0,0,0,.179.286,2.852,2.852,0,0,1,.23.364,2.723,2.723,0,0,1,.154.415,4.785,4.785,0,0,1,.256.415c.077.13.128.286.2.441a2.129,2.129,0,0,1,.256.441,1.323,1.323,0,0,1,.128.338c.051-.1.1-.182.154-.286.128-.234.23-.493.358-.727.128-.26.256-.519.41-.779.051-.1.128-.208.179-.312.077-.13.154-.26.23-.415.077-.13.128-.286.2-.415a3.717,3.717,0,0,0,.384-.7c.1-.182.2-.286.256-.389.077-.1.1-.234.179-.338.154-.26.358-.519.512-.8a1.948,1.948,0,0,0,.179-.312c.051-.1.128-.234.179-.338.051-.078.1-.182.154-.26l.384-.545c.077-.1.128-.208.2-.312.128-.182.256-.337.384-.519a.467.467,0,0,0,.128-.182,3.4,3.4,0,0,1,.435-.623,1.435,1.435,0,0,1,.154-.208c.128-.182.23-.364.358-.519.128-.182.256-.338.384-.519s.23-.338.358-.519.256-.338.358-.493a.579.579,0,0,1,.077-.13,1.79,1.79,0,0,0,.2-.26c.077-.1.128-.208.2-.312.128-.182.256-.363.41-.571.077-.1.128-.208.179-.286.128-.182.282-.364.41-.545.077-.1.1-.208.179-.312l.384-.545a1.934,1.934,0,0,0,.179-.312c.128-.182.256-.337.384-.519a6.218,6.218,0,0,0,.333-.545c.051-.078.1-.182.154-.26.077-.13.179-.26.256-.415a1.94,1.94,0,0,1,.179-.312,3.823,3.823,0,0,1,.23-.338c.128-.208.2-.441.333-.649s.256-.39.384-.6a1.056,1.056,0,0,0,.128-.234,2.9,2.9,0,0,0,.179-.415,1.953,1.953,0,0,1,.179-.312c.077-.13.154-.26.23-.415.077-.13.1-.286.179-.441.1-.208.2-.441.282-.649a3.926,3.926,0,0,0,.23-.467c.077-.182.128-.389.2-.571l.1-.208c.025-.078.051-.13.077-.208a.372.372,0,0,0,.051-.156c.051-.208.128-.415.179-.6.051-.13.077-.26.128-.364a2.064,2.064,0,0,0,.1-.337c.077-.26.128-.493.179-.753.051-.156.077-.338.128-.493a.2.2,0,0,1,.026-.13.739.739,0,0,0,.1-.519.766.766,0,0,1,.051-.234l.077-.234.077-.857c0-.1.051-.182.051-.286v-2.7a.333.333,0,0,0-.026-.156c-.026-.156-.077-.312-.1-.467-.026-.182,0-.389-.026-.571a.621.621,0,0,0-.051-.208c-.026-.078-.051-.182-.077-.26a2.876,2.876,0,0,1-.025-.467,3.085,3.085,0,0,0-.128-.519.389.389,0,0,1-.026-.182c-.077-.26-.154-.493-.23-.753a2.9,2.9,0,0,0-.179-.675.793.793,0,0,1-.128-.415.536.536,0,0,1-.128-.234c-.051-.156-.1-.338-.179-.519a2.336,2.336,0,0,1-.128-.234c-.051-.156-.128-.312-.179-.467l-.23-.389c-.077-.13-.128-.286-.2-.441-.1-.156-.179-.286-.256-.415-.051-.1-.128-.234-.179-.338-.077-.13-.179-.26-.256-.389a1.94,1.94,0,0,0-.179-.312c-.128-.182-.256-.338-.384-.519-.179-.234-.333-.493-.512-.727-.154-.182-.333-.363-.486-.545l-.614-.7c-.154-.182-.307-.363-.461-.519-.23-.234-.486-.415-.717-.649l-.717-.649c-.077-.052-.128-.1-.2-.156a5.48,5.48,0,0,1-.486-.338c-.179-.13-.333-.26-.512-.389s-.384-.234-.589-.363a1.433,1.433,0,0,1-.2-.13c-.128-.078-.23-.156-.358-.234l-.384-.234a2.024,2.024,0,0,0-.41-.208L22.924,2.1a.566.566,0,0,0-.154-.13,3.088,3.088,0,0,1-.435-.182c0-.026-.051-.052-.1-.078a1.72,1.72,0,0,1-.512-.182c-.179-.13-.384-.1-.563-.234a2.559,2.559,0,0,0-.589-.182c-.154-.052-.23-.1-.333-.13-.077-.026-.154,0-.2-.052-.179-.156-.435-.078-.64-.208a3.831,3.831,0,0,0-.819.156,2.225,2.225,0,0,0-.384.13c-.026,0-.077.026-.1.026l-.615.234-.537.156c-.128.078-.179.1-.23.13-.179.052-.333.13-.486.182a.8.8,0,0,0-.256.13,1.628,1.628,0,0,0-.256.156c-.051.026-.077.052-.128.078a.558.558,0,0,0-.128.078c-.051.026-.077.026-.128.052l-.384.234a2.567,2.567,0,0,1-.384.182,1.847,1.847,0,0,0-.23.13c-.128.078-.23.182-.358.26l-.845.545a2.244,2.244,0,0,1-.256.156,2.694,2.694,0,0,0-.282.182c-.179.13-.333.26-.512.415l-.384.312c-.128.13-.256.234-.384.363l-.768.7c-.128.13-.256.286-.384.441-.2.234-.435.415-.64.649l-.461.545c-.051.078-.1.13-.154.208-.077.1-.128.208-.2.312-.179.234-.333.467-.512.7a4.53,4.53,0,0,0-.282.467,2.157,2.157,0,0,0-.179.338c-.1.182-.179.286-.256.415a2.317,2.317,0,0,1-.2.441,3.625,3.625,0,0,0-.282.545c-.1.182-.179.312-.256.441l-.154.389c-.051.182-.128.363-.179.545-.1.286-.179.467-.256.675-.077.234-.128.493-.179.727a.792.792,0,0,0-.154.493.373.373,0,0,1-.051.156c-.026.13-.077.234-.1.363a1.539,1.539,0,0,1-.051.338,1.038,1.038,0,0,0-.1.545.781.781,0,0,1-.1.467.2.2,0,0,0-.026.13,2.348,2.348,0,0,1,.051.857,6.517,6.517,0,0,0-.077,1.22c.026.493,0,.961,0,1.454a.729.729,0,0,0,.026.234c.026.26.077.545.1.8.051.545.128,1.065.179,1.61a1.01,1.01,0,0,1,.128.493c0,.078,0,.208.051.26.1.1.077.234.1.364a.767.767,0,0,0,.051.234c.026.078.077.156.1.234a6.021,6.021,0,0,1,.179.727c.1.208.179.389.256.571a3.718,3.718,0,0,1,.179.571c.026.1.077.208.1.312.1.208.2.39.282.545a3.194,3.194,0,0,1,.179.441,1.54,1.54,0,0,0,.1.208C7.462,27.389,7.539,27.518,7.616,27.648Z" transform="translate(4.032 0.314)" fill="#4a2485"/>
                    <path id="Path_4" d="M54.828,15.867a14.531,14.531,0,0,0-6.707-3.142,11.635,11.635,0,0,1-4.352-1.766,2.868,2.868,0,0,1-.922-1.116,3.008,3.008,0,0,1-.282-1.376,3.3,3.3,0,0,1,1-2.6,5.341,5.341,0,0,1,3.712-1.064,13.842,13.842,0,0,1,4.4.7c.537.182,1,.363,1.382.493a3.251,3.251,0,0,0,.973.234,1.145,1.145,0,0,0,.768-.312,2.41,2.41,0,0,0,.64-1.116,4.933,4.933,0,0,0,.2-1.35A2.537,2.537,0,0,0,55.186,1.9,3.08,3.08,0,0,0,53.5.912,22.147,22.147,0,0,0,47.3.133c-3.456,0-6.016.987-7.705,2.6a8.438,8.438,0,0,0-2.483,6.257,7.272,7.272,0,0,0,2.253,5.53,13.241,13.241,0,0,0,6.246,3.012,11.919,11.919,0,0,1,4.864,2,3.386,3.386,0,0,1,1.254,2.778,3.413,3.413,0,0,1-1.229,2.83,6.582,6.582,0,0,1-4.147,1.116,14.341,14.341,0,0,1-4.992-.909c-.614-.234-1.152-.467-1.587-.649a2.968,2.968,0,0,0-1.1-.312,1.172,1.172,0,0,0-.768.286,2.241,2.241,0,0,0-.666,1.091,4.174,4.174,0,0,0-.2,1.376,2.734,2.734,0,0,0,.41,1.558,3.216,3.216,0,0,0,1.638,1.091,21.258,21.258,0,0,0,7.091,1.168,12.22,12.22,0,0,0,8.141-2.6,8.415,8.415,0,0,0,2.944-6.569A8.239,8.239,0,0,0,54.828,15.867Z" transform="translate(28.012 -0.133)" fill="#0551d8"/>
                    <path id="Path_5" d="M73.876,29.756a1.92,1.92,0,0,0,.153-.779,52.583,52.583,0,0,0-2.3-14.1A42.054,42.054,0,0,0,65.351,1.43a2.423,2.423,0,0,0-1.2-.909A6.4,6.4,0,0,0,62.254.34a6.211,6.211,0,0,0-1.869.182,2.423,2.423,0,0,0-1.2.909,42.6,42.6,0,0,0-6.374,13.449,52.743,52.743,0,0,0-2.3,14.1,1.96,1.96,0,0,0,.154.8.856.856,0,0,0,.384.415,1.814,1.814,0,0,0,.87.26,9.134,9.134,0,0,0,1.254.052,4.888,4.888,0,0,0,1.946-.234,1.118,1.118,0,0,0,.538-.493,1.564,1.564,0,0,0,.1-.779H55.7c.256-1.817.307-3.817.538-5.634H68.27A46.474,46.474,0,0,1,68.756,29a1.921,1.921,0,0,0,.154.779,1.105,1.105,0,0,0,.358.415,1.714,1.714,0,0,0,.845.26,8.762,8.762,0,0,0,1.254.052,5.171,5.171,0,0,0,2-.234A1.111,1.111,0,0,0,73.876,29.756Zm-6.3-10.827H56.98A44.46,44.46,0,0,1,62.254,5.013,44.538,44.538,0,0,1,67.579,18.93Z" transform="translate(38.198 0.023)" fill="#0551d8"/>
                    <path id="Path_6" d="M99.416,29.8a1.835,1.835,0,0,0,.154-.779,133.53,133.53,0,0,0-3.1-27.184,2.726,2.726,0,0,0-.307-.779,1.548,1.548,0,0,0-.947-.6,5.753,5.753,0,0,0-1.434-.13,5.812,5.812,0,0,0-1.69.156,1.878,1.878,0,0,0-.922.649,54.077,54.077,0,0,0-8.013,16.227A54.877,54.877,0,0,0,75.2,1.141a1.769,1.769,0,0,0-.922-.675A5.709,5.709,0,0,0,72.588.31a3.915,3.915,0,0,0-1.766.26,1.482,1.482,0,0,0-.589.467,1.77,1.77,0,0,0-.307.779A133.53,133.53,0,0,0,66.828,29a1.573,1.573,0,0,0,.154.779,1.105,1.105,0,0,0,.358.415,2.033,2.033,0,0,0,.87.26,8.763,8.763,0,0,0,1.254.052,5.527,5.527,0,0,0,1.946-.208,1.107,1.107,0,0,0,.537-.493,1.833,1.833,0,0,0,.154-.779A133,133,0,0,1,73.97,7.243a55,55,0,0,1,6.912,17.681.881.881,0,0,0,.23.519,1.314,1.314,0,0,0,.794.415,8.414,8.414,0,0,0,1.28.078,5.157,5.157,0,0,0,1.587-.156,1.272,1.272,0,0,0,.487-.338,1.052,1.052,0,0,0,.23-.519A53.67,53.67,0,0,1,92.453,7.191a133.377,133.377,0,0,1,1.869,21.835,1.574,1.574,0,0,0,.153.779,1.105,1.105,0,0,0,.358.415,2.032,2.032,0,0,0,.87.26,8.764,8.764,0,0,0,1.254.052,5.527,5.527,0,0,0,1.946-.208A1.413,1.413,0,0,0,99.416,29.8Z" transform="translate(50.545 0.001)" fill="#0551d8"/>
                    <path id="Path_7" d="M90.526,30.3h15.948a1.5,1.5,0,0,0,.691-.1.856.856,0,0,0,.358-.312,2.011,2.011,0,0,0,.2-.727c.026-.286,0-.623,0-1.039a4.174,4.174,0,0,0-.154-1.636.861.861,0,0,0-.435-.467,1.349,1.349,0,0,0-.64-.13H94.443V17.058h9.165a1.5,1.5,0,0,0,.691-.13,1.136,1.136,0,0,0,.384-.312,1.62,1.62,0,0,0,.23-.727c.026-.286.051-.623.051-1.039a4.224,4.224,0,0,0-.2-1.662.855.855,0,0,0-.461-.441,1.494,1.494,0,0,0-.691-.1H94.443V4.855h11.776a1.332,1.332,0,0,0,.666-.156.961.961,0,0,0,.384-.338,1.748,1.748,0,0,0,.256-.753c.026-.286.051-.623.051-1.064a4.155,4.155,0,0,0-.2-1.636.809.809,0,0,0-.461-.415,1.5,1.5,0,0,0-.691-.078H90.526a1.494,1.494,0,0,0-1.075.338,1.4,1.4,0,0,0-.41,1.013V28.871a1.461,1.461,0,0,0,.41,1.039A1.418,1.418,0,0,0,90.526,30.3Z" transform="translate(67.345 0.078)" fill="#0551d8"/>
                    <path id="Path_8" d="M124.524,1.805a1.805,1.805,0,0,0-.153-.753.882.882,0,0,0-.358-.389,2.033,2.033,0,0,0-.845-.26,8.206,8.206,0,0,0-1.2-.052,4.76,4.76,0,0,0-1.9.234.956.956,0,0,0-.511.493,1.824,1.824,0,0,0-.128.779V16.37A52.171,52.171,0,0,0,106.6.922a2.466,2.466,0,0,0-.9-.467,3.879,3.879,0,0,0-1.177-.13,3.6,3.6,0,0,0-1.639.234.945.945,0,0,0-.46.493,1.7,1.7,0,0,0-.128.753V28.989a1.929,1.929,0,0,0,.153.779,1.117,1.117,0,0,0,.358.415,2.039,2.039,0,0,0,.845.26,8.2,8.2,0,0,0,1.2.052,4.757,4.757,0,0,0,1.9-.234.957.957,0,0,0,.511-.493,1.816,1.816,0,0,0,.155-.779V8.192c5.376,4.959,10.6,13.916,12.466,21.264a1.34,1.34,0,0,0,.23.519,1.274,1.274,0,0,0,.769.441,5.873,5.873,0,0,0,1.3.1,4.091,4.091,0,0,0,1.741-.234,1.188,1.188,0,0,0,.513-.493,1.723,1.723,0,0,0,.153-.753V1.805Z" transform="translate(77.377 0.012)" fill="#0551d8"/>
                    <path id="Path_9" d="M52.3,21.184a1.017,1.017,0,0,0-.589-.208H38.857a.914.914,0,0,0-.512.156.993.993,0,0,0-.282.286,1.481,1.481,0,0,0-.179.6,7.17,7.17,0,0,0-.051.831,3.585,3.585,0,0,0,.154,1.272.823.823,0,0,0,.333.39,1.133,1.133,0,0,0,.512.1h8.192a38.47,38.47,0,0,0-9.6,15.162,3.987,3.987,0,0,0-.256,1.3,4.172,4.172,0,0,0,.23,1.636.961.961,0,0,0,.435.467,1.289,1.289,0,0,0,.64.13H51.605a1.026,1.026,0,0,0,.487-.1.658.658,0,0,0,.2-.26,3.1,3.1,0,0,0,.154-1.4,3.188,3.188,0,0,0-.1-1.272,1.056,1.056,0,0,0-.307-.441.976.976,0,0,0-.461-.156h-9.8A35.74,35.74,0,0,1,52.143,24.741a2.256,2.256,0,0,0,.563-.675,2.7,2.7,0,0,0,.154-.961,3.868,3.868,0,0,0-.179-1.428A1.265,1.265,0,0,0,52.3,21.184Z" transform="translate(28.111 15.632)" fill="#f6227d"/>
                    <path id="Path_10" d="M73.076,21.562a.97.97,0,0,0-.307-.338,1.349,1.349,0,0,0-.665-.208c-.256-.026-.563-.026-.947-.026a3.333,3.333,0,0,0-1.459.182.965.965,0,0,0-.435.415,1.237,1.237,0,0,0-.128.623c-.256,6.672-1.126,12.748-3.507,17.136-2.381-4.362-3.1-9.5-3.328-15.007a1.1,1.1,0,0,0-.128-.571.656.656,0,0,0-.282-.311,1.678,1.678,0,0,0-.666-.208c-.256-.026-.589-.026-.973-.026a3.926,3.926,0,0,0-1.485.156.909.909,0,0,0-.435.389,1.1,1.1,0,0,0-.128.571c-.23,5.5-.973,10.671-3.328,15.007C52.494,34.959,51.6,28.91,51.342,22.212a1.457,1.457,0,0,0-.128-.6,1.226,1.226,0,0,0-.282-.338,1.347,1.347,0,0,0-.665-.208c-.256-.026-.563-.026-.922-.026a3.4,3.4,0,0,0-1.485.182.855.855,0,0,0-.435.416,1.237,1.237,0,0,0-.128.623c0,6.465,1.69,15.162,5.273,20.355a2.312,2.312,0,0,0,.845.727,3.907,3.907,0,0,0,1.331.156,4.94,4.94,0,0,0,1.331-.1,1.366,1.366,0,0,0,.87-.649,25.77,25.77,0,0,0,3.3-7.373,25.356,25.356,0,0,0,3.251,7.27,1.639,1.639,0,0,0,.9.675,5,5,0,0,0,1.357.13,3.906,3.906,0,0,0,1.331-.156,1.82,1.82,0,0,0,.87-.727C71.514,37.27,73.2,28.7,73.2,22.238A2.248,2.248,0,0,0,73.076,21.562Z" transform="translate(35.773 15.643)" fill="#f6227d"/>
                    <path id="Path_11" d="M72.553,20.843c-2.867,0-5.222.857-6.809,2.752-1.613,1.9-2.458,4.725-2.458,8.646s.845,6.8,2.458,8.7a8.428,8.428,0,0,0,6.809,2.8,8.482,8.482,0,0,0,6.835-2.8c1.613-1.921,2.457-4.8,2.457-8.7,0-3.92-.845-6.776-2.457-8.646A8.53,8.53,0,0,0,72.553,20.843Zm5.222,11.372c0,2.882-.486,4.907-1.382,6.179a4.354,4.354,0,0,1-3.84,1.869,4.309,4.309,0,0,1-3.814-1.869c-.87-1.272-1.357-3.323-1.357-6.179,0-2.882.486-4.881,1.357-6.127a4.36,4.36,0,0,1,3.814-1.817,4.316,4.316,0,0,1,3.84,1.817C77.289,27.36,77.776,29.359,77.776,32.215Z" transform="translate(47.866 15.531)" fill="#f6227d"/>
                    <path id="Path_12" d="M88.646,39.826a1.187,1.187,0,0,0-.538-.156H79.763V22.145a1.49,1.49,0,0,0-.051-.6,1.161,1.161,0,0,0-.256-.337,1.253,1.253,0,0,0-.64-.208c-.256-.026-.563-.026-.922-.026a3.275,3.275,0,0,0-1.459.182.711.711,0,0,0-.384.389,1.172,1.172,0,0,0-.077.6V42.266h-.051a1.153,1.153,0,0,0,.307.779,1.117,1.117,0,0,0,.819.26H88.185a1.176,1.176,0,0,0,.538-.078.754.754,0,0,0,.307-.26,1.481,1.481,0,0,0,.179-.6,7.981,7.981,0,0,0,.025-.831,3.09,3.09,0,0,0-.154-1.3A1.605,1.605,0,0,0,88.646,39.826Z" transform="translate(57.424 15.632)" fill="#f6227d"/>
                    <path id="Path_13" d="M97.931,39.826a1.186,1.186,0,0,0-.538-.156H89.2V22.145a1.461,1.461,0,0,0-.128-.6.965.965,0,0,0-.307-.337A1.349,1.349,0,0,0,88.1,21c-.256-.026-.563-.026-.947-.026a3.458,3.458,0,0,0-1.485.182.808.808,0,0,0-.435.389,1.2,1.2,0,0,0-.128.6V42.266h.051a1.153,1.153,0,0,0,.307.779,1.117,1.117,0,0,0,.819.26H97.419a1.176,1.176,0,0,0,.538-.078.754.754,0,0,0,.307-.26,1.481,1.481,0,0,0,.179-.6,7.929,7.929,0,0,0,.026-.831,3.087,3.087,0,0,0-.154-1.3A1,1,0,0,0,97.931,39.826Z" transform="translate(64.369 15.632)" fill="#f6227d"/>
                    <path id="Path_14" d="M108.258,41.747a2.775,2.775,0,0,0-.155-1.324.8.8,0,0,0-.383-.389,1.177,1.177,0,0,0-.537-.1H98.248V33.439h6.783a1.186,1.186,0,0,0,.537-.052.693.693,0,0,0,.307-.234,1.224,1.224,0,0,0,.179-.571,6.476,6.476,0,0,0,.026-.753,2.875,2.875,0,0,0-.155-1.246.863.863,0,0,0-.358-.39,1.17,1.17,0,0,0-.537-.1H98.248V24.378H107a1.232,1.232,0,0,0,.537-.052.7.7,0,0,0,.307-.234,1.274,1.274,0,0,0,.2-.571,6.726,6.726,0,0,0,.026-.779,2.749,2.749,0,0,0-.155-1.22.927.927,0,0,0-.358-.416,1.172,1.172,0,0,0-.537-.13h-11.6a1.057,1.057,0,0,0-.768.338,1.208,1.208,0,0,0-.23.857V42.188a1.177,1.177,0,0,0,.23.831.979.979,0,0,0,.768.286h11.775a1.172,1.172,0,0,0,.537-.078.757.757,0,0,0,.307-.26,1.346,1.346,0,0,0,.205-.519,6.2,6.2,0,0,1,0-.7h0Z" transform="translate(71.424 15.632)" fill="#f6227d"/>
                </g>
            </g>
        </g>
    </g>
</svg>
